<svg version="1.1" id="Layer_1" xmlns="http://www.w3.org/2000/svg" xmlns:xlink="http://www.w3.org/1999/xlink" x="0px" y="0px"
	 width="100%" viewBox="0 0 1034 271" enable-background="new 0 0 1034 271" xml:space="preserve">
<path fill="#010101" opacity="1.000000" stroke="none" 
	d="
M170.000000,1.000000 
	C178.020905,1.000000 186.041809,1.000000 194.645355,1.318525 
	C197.355942,4.410278 199.778290,7.009520 201.543839,9.996932 
	C204.289780,14.643178 207.910477,15.973211 213.344757,15.970075 
	C480.659912,15.815820 747.975159,15.834963 1015.290405,15.834963 
	C1017.379456,15.834963 1019.468567,15.834963 1021.508423,15.834963 
	C1021.508423,97.888138 1021.508423,179.278320 1021.508423,261.051208 
	C810.482544,261.051208 599.778259,261.051208 388.895477,261.051208 
	C391.067596,264.947052 393.033783,268.473541 395.000000,272.000000 
	C386.979095,272.000000 378.958191,272.000000 370.435852,271.656738 
	C339.858826,230.893661 309.783234,190.473831 279.398438,149.638458 
	C276.178772,153.781586 273.557495,157.642960 270.426880,161.034058 
	C267.755707,163.927460 268.074188,166.013885 270.309448,169.054276 
	C291.500061,197.877716 312.535858,226.814987 333.609100,255.724716 
	C334.717499,257.245361 335.761200,258.813202 337.004791,260.603516 
	C228.335052,260.603516 120.427238,260.603516 12.422665,260.603516 
	C12.422665,178.984879 12.422665,97.593933 12.422665,16.031734 
	C13.466099,15.954412 14.270767,15.842752 15.075456,15.842599 
	C61.063923,15.833883 107.052521,15.798127 153.040390,15.964453 
	C154.914520,15.971231 157.365479,17.439671 158.560699,18.988684 
	C169.033463,32.561245 179.284012,46.305332 189.595642,60.002167 
	C204.867340,80.287415 220.135086,100.575623 235.496063,120.984169 
	C239.404816,115.854698 243.120895,110.978073 246.874344,106.052429 
	C246.270782,105.146667 245.846268,104.444664 245.359650,103.788742 
	C221.051346,71.022636 196.730682,38.265690 172.449585,5.479430 
	C171.446243,4.124635 170.808228,2.499296 170.000000,1.000000 
M342.476349,148.499725 
	C342.476318,163.990173 342.454163,179.480682 342.509460,194.970932 
	C342.515198,196.579758 342.476776,198.539795 343.315216,199.737259 
	C348.507141,207.152573 353.944122,214.396255 359.299744,221.696930 
	C359.626678,221.607040 359.953583,221.517151 360.280518,221.427261 
	C360.280518,209.186523 360.280518,196.945770 360.280518,184.383347 
	C363.663574,189.417450 366.067352,194.558304 369.832153,198.346664 
	C397.544312,226.232391 447.743530,219.129166 466.035309,184.377289 
	C480.525146,156.848557 480.945068,127.921509 469.498047,99.385818 
	C451.956757,55.657993 401.098358,52.640713 374.949158,72.922699 
	C368.629059,77.824760 364.037537,84.955475 358.753815,90.944939 
	C358.753815,82.896156 358.753815,74.075554 358.753815,65.403351 
	C353.059784,65.403351 347.959747,65.403351 342.476379,65.403351 
	C342.476379,92.932503 342.476379,120.216110 342.476349,148.499725 
M585.030762,110.655495 
	C580.488403,128.048203 580.221558,145.546722 584.065186,163.066925 
	C588.347778,182.587631 597.658264,198.605621 615.941467,208.403137 
	C627.874695,214.797836 640.643494,215.498016 653.757202,215.037537 
	C683.282410,214.000778 703.940979,196.221466 710.498413,163.281311 
	C704.825928,163.281311 699.177795,163.281311 693.487122,163.281311 
	C691.977234,167.171234 690.688965,171.108932 688.960327,174.842758 
	C677.927673,198.673767 647.167603,208.576019 625.630981,195.248322 
	C606.413330,183.355713 600.025085,164.966019 599.300720,143.210754 
	C636.774048,143.210754 673.880676,143.210754 710.918213,143.210754 
	C712.885071,132.655304 709.573059,112.017143 703.922852,98.569664 
	C684.992737,53.515968 632.510925,53.987190 608.072205,73.809021 
	C596.328064,83.334511 589.606262,95.802696 585.030762,110.655495 
M127.253830,214.888123 
	C159.075195,212.919724 176.207703,190.038605 181.143463,163.158508 
	C177.291458,163.158508 173.414627,163.536392 169.645218,163.061523 
	C165.075500,162.485855 163.439148,164.432327 162.124084,168.558060 
	C153.141861,196.738037 129.581635,205.028656 104.331291,198.378754 
	C88.482811,194.204941 78.840248,182.231552 74.233704,166.915375 
	C66.511932,141.241425 67.199028,116.237228 83.334816,93.439903 
	C95.713066,75.951393 121.907196,70.913979 140.025238,82.202011 
	C156.880035,92.702988 162.985687,108.841614 164.437836,128.192062 
	C137.939346,128.192062 111.885178,128.192062 85.786499,128.192062 
	C85.786499,133.445541 85.786499,138.183212 85.786499,142.914459 
	C118.012505,142.914459 149.931519,142.914459 182.933350,142.914459 
	C181.916443,133.506348 181.299210,124.411064 179.895355,115.438866 
	C175.582855,87.877365 156.658829,67.422592 131.159225,62.301460 
	C100.441803,56.132431 72.781410,69.919624 60.396847,98.583168 
	C49.569229,123.643250 49.541687,149.490921 58.506721,175.091675 
	C64.701042,192.780319 76.458450,205.619400 94.711708,211.771378 
	C105.019592,215.245483 115.615387,215.473404 127.253830,214.888123 
M931.261292,214.993256 
	C939.779358,212.923920 948.779358,211.970749 956.712097,208.545700 
	C971.794617,202.033676 981.233521,190.498093 981.835632,173.274796 
	C982.416321,156.661362 974.475952,144.616440 960.053223,137.602570 
	C952.133972,133.751343 943.039856,132.216919 934.380859,130.009232 
	C921.860413,126.817062 908.812317,125.374496 897.416138,118.590477 
	C890.554504,114.505798 885.954773,108.865143 886.254700,100.450432 
	C886.563965,91.773476 890.694031,85.268753 898.355164,81.143280 
	C907.156799,76.403641 916.710632,75.168747 926.436890,76.281166 
	C938.052795,77.609718 948.694458,81.500755 954.620850,92.531433 
	C957.126770,97.195557 958.169800,102.645660 959.898560,107.800674 
	C965.231018,107.800674 970.859192,107.800674 977.804443,107.800674 
	C975.562439,100.363457 974.272583,93.098167 971.236206,86.656090 
	C965.545471,74.582863 955.567383,66.982483 942.617065,63.718586 
	C922.078918,58.542301 902.386780,60.188877 884.202026,71.948463 
	C863.632812,85.250061 861.315674,120.813889 887.337402,132.882690 
	C896.733826,137.240723 906.981140,139.814667 916.927246,142.924225 
	C928.614746,146.578232 940.605530,149.379517 952.024963,153.710281 
	C956.015564,155.223694 959.761047,159.649994 961.776489,163.669617 
	C967.264465,174.615128 963.024170,186.524734 951.981934,193.243423 
	C937.642456,201.968277 922.188599,202.354736 906.705933,197.673920 
	C894.200378,193.893204 885.388428,185.627670 882.367920,172.311920 
	C881.755676,169.612991 881.404236,166.854919 880.945557,164.199402 
	C874.947754,164.199402 869.321533,164.199402 863.520386,164.199402 
	C865.079224,184.284195 872.603821,200.292770 891.755432,209.003448 
	C904.051819,214.596207 917.045410,215.671448 931.261292,214.993256 
M734.030396,90.746361 
	C728.862732,110.468178 735.113281,125.352089 753.562317,134.029984 
	C762.179199,138.083054 771.749146,140.140091 780.934448,142.946777 
	C792.647461,146.525833 804.617554,149.397812 816.035278,153.736526 
	C820.024292,155.252365 823.776550,159.682953 825.775818,163.707077 
	C831.439087,175.106369 826.600830,187.345398 814.647339,194.058426 
	C801.059021,201.689529 786.568237,202.150146 772.051758,198.104370 
	C759.119507,194.500076 749.735352,186.461349 746.474060,172.725082 
	C745.799316,169.883438 745.402283,166.975891 744.896545,164.204330 
	C738.866089,164.204330 733.238037,164.204330 727.486206,164.204330 
	C727.666077,166.051315 727.752808,167.691299 727.994568,169.308136 
	C730.191711,184.002274 735.311218,197.352478 748.875977,205.028625 
	C774.300110,219.415863 800.516663,219.136765 826.029053,205.684372 
	C840.491089,198.058685 847.169861,184.709976 845.653625,168.175232 
	C844.098511,151.215363 833.839172,140.673187 818.485168,135.123566 
	C810.569458,132.262466 802.105591,130.889481 793.857056,128.984451 
	C782.697388,126.407097 771.350342,124.487442 761.263123,118.538887 
	C746.782166,109.999306 746.229614,90.442863 760.770203,82.145302 
	C775.638672,73.660652 791.334412,73.646400 806.684631,81.072182 
	C817.579468,86.342659 822.137817,96.075821 823.019775,107.752090 
	C829.037170,107.752090 834.814758,107.752090 840.596985,107.752090 
	C839.745728,85.138824 826.554382,67.602509 802.569580,62.571709 
	C787.278259,59.364384 772.094727,60.602489 757.518250,66.725937 
	C746.606140,71.309982 738.457336,78.675209 734.030396,90.746361 
M504.818146,137.499924 
	C504.818146,161.937988 504.818146,186.376053 504.818146,210.982803 
	C510.903656,210.982803 516.500793,210.982803 522.612305,210.982803 
	C522.612305,209.003281 522.608032,207.211960 522.612915,205.420670 
	C522.682556,179.928955 522.062256,154.410782 523.036987,128.953674 
	C523.855225,107.583893 534.991760,92.183708 555.217957,84.538361 
	C561.896545,82.013885 569.381531,81.622627 576.737183,80.210014 
	C576.737183,75.114784 576.737183,69.511909 576.737183,63.332558 
	C550.276184,62.778492 532.299500,74.996429 520.841553,98.263191 
	C520.841553,87.337593 520.841553,76.411995 520.841553,65.399307 
	C515.419250,65.399307 510.336884,65.399307 504.817871,65.399307 
	C504.817871,89.259819 504.817871,112.879868 504.818146,137.499924 
M253.390747,125.884003 
	C232.294510,154.184601 211.198288,182.485199 189.772324,211.228134 
	C196.202728,211.228134 201.875137,211.023224 207.522919,211.307556 
	C210.738632,211.469452 212.576859,210.325867 214.475082,207.775696 
	C242.801895,169.720261 271.251434,131.756195 299.670349,93.769318 
	C306.603943,84.501381 313.531555,75.228973 320.963379,65.287842 
	C314.450226,65.287842 308.844727,65.471443 303.259033,65.218414 
	C299.950928,65.068565 297.895630,66.088860 295.874634,68.841049 
	C281.983795,87.757240 267.878174,106.515709 253.390747,125.884003 
z"/>
<path fill="#FDFDFD" opacity="1.000000" stroke="none" 
	d="
M395.468658,272.000000 
	C393.033783,268.473541 391.067596,264.947052 388.895477,261.051208 
	C599.778259,261.051208 810.482544,261.051208 1021.508423,261.051208 
	C1021.508423,179.278320 1021.508423,97.888138 1021.508423,15.834963 
	C1019.468567,15.834963 1017.379456,15.834963 1015.290405,15.834963 
	C747.975159,15.834963 480.659912,15.815820 213.344757,15.970075 
	C207.910477,15.973211 204.289780,14.643178 201.543839,9.996932 
	C199.778290,7.009520 197.355942,4.410278 195.113983,1.318525 
	C474.930054,1.000000 754.860107,1.000000 1034.895020,1.000000 
	C1034.895020,91.240715 1034.895020,181.481598 1034.895020,272.000000 
	C821.979187,272.000000 608.958252,272.000000 395.468658,272.000000 
z"/>
<path fill="#FDFDFD" opacity="1.000000" stroke="none" 
	d="
M169.531342,1.000000 
	C170.808228,2.499296 171.446243,4.124635 172.449585,5.479430 
	C196.730682,38.265690 221.051346,71.022636 245.359650,103.788742 
	C245.846268,104.444664 246.270782,105.146667 246.874344,106.052429 
	C243.120895,110.978073 239.404816,115.854698 235.496063,120.984169 
	C220.135086,100.575623 204.867340,80.287415 189.595642,60.002167 
	C179.284012,46.305332 169.033463,32.561245 158.560699,18.988684 
	C157.365479,17.439671 154.914520,15.971231 153.040390,15.964453 
	C107.052521,15.798127 61.063923,15.833883 15.075456,15.842599 
	C14.270767,15.842752 13.466099,15.954412 12.422665,16.031734 
	C12.422665,97.593933 12.422665,178.984879 12.422665,260.603516 
	C120.427238,260.603516 228.335052,260.603516 337.004791,260.603516 
	C335.761200,258.813202 334.717499,257.245361 333.609100,255.724716 
	C312.535858,226.814987 291.500061,197.877716 270.309448,169.054276 
	C268.074188,166.013885 267.755707,163.927460 270.426880,161.034058 
	C273.557495,157.642960 276.178772,153.781586 279.398438,149.638458 
	C309.783234,190.473831 339.858826,230.893661 369.967224,271.656738 
	C247.066544,272.000000 124.133080,272.000000 1.099809,272.000000 
	C1.099809,181.782166 1.099809,91.564194 1.099809,1.000000 
	C57.020420,1.000000 113.041550,1.000000 169.531342,1.000000 
z"/>
<path fill="#F9F9F9" opacity="1.000000" stroke="none" 
	d="
M342.476379,147.999725 
	C342.476379,120.216110 342.476379,92.932503 342.476379,65.403351 
	C347.959747,65.403351 353.059784,65.403351 358.753815,65.403351 
	C358.753815,74.075554 358.753815,82.896156 358.753815,90.944939 
	C364.037537,84.955475 368.629059,77.824760 374.949158,72.922699 
	C401.098358,52.640713 451.956757,55.657993 469.498047,99.385818 
	C480.945068,127.921509 480.525146,156.848557 466.035309,184.377289 
	C447.743530,219.129166 397.544312,226.232391 369.832153,198.346664 
	C366.067352,194.558304 363.663574,189.417450 360.280518,184.383347 
	C360.280518,196.945770 360.280518,209.186523 360.280518,221.427261 
	C359.953583,221.517151 359.626678,221.607040 359.299744,221.696930 
	C353.944122,214.396255 348.507141,207.152573 343.315216,199.737259 
	C342.476776,198.539795 342.515198,196.579758 342.509460,194.970932 
	C342.454163,179.480682 342.476318,163.990173 342.476379,147.999725 
M378.791901,188.732666 
	C396.973907,206.154037 436.775146,206.591614 451.039825,175.245743 
	C461.658875,151.911072 462.036774,128.343109 452.615417,105.004997 
	C446.251709,89.241051 434.717773,78.046097 416.624878,76.459747 
	C392.864929,74.376503 372.660614,83.494720 364.963654,107.107460 
	C361.627869,117.340981 360.673950,128.660706 360.439453,139.525940 
	C360.044769,157.816193 364.619110,174.827148 378.791901,188.732666 
z"/>
<path fill="#FBFBFB" opacity="1.000000" stroke="none" 
	d="
M585.114746,110.257187 
	C589.606262,95.802696 596.328064,83.334511 608.072205,73.809021 
	C632.510925,53.987190 684.992737,53.515968 703.922852,98.569664 
	C709.573059,112.017143 712.885071,132.655304 710.918213,143.210754 
	C673.880676,143.210754 636.774048,143.210754 599.300720,143.210754 
	C600.025085,164.966019 606.413330,183.355713 625.630981,195.248322 
	C647.167603,208.576019 677.927673,198.673767 688.960327,174.842758 
	C690.688965,171.108932 691.977234,167.171234 693.487122,163.281311 
	C699.177795,163.281311 704.825928,163.281311 710.498413,163.281311 
	C703.940979,196.221466 683.282410,214.000778 653.757202,215.037537 
	C640.643494,215.498016 627.874695,214.797836 615.941467,208.403137 
	C597.658264,198.605621 588.347778,182.587631 584.065186,163.066925 
	C580.221558,145.546722 580.488403,128.048203 585.114746,110.257187 
M674.115112,85.321915 
	C661.541809,74.893898 636.983337,71.414780 620.457581,85.120827 
	C607.006836,96.276550 601.712585,111.171700 599.405090,127.911247 
	C630.921326,127.911247 662.164856,127.911247 693.620789,127.911247 
	C692.681030,111.235252 687.518188,96.793732 674.115112,85.321915 
z"/>
<path fill="#FAFAFA" opacity="1.000000" stroke="none" 
	d="
M126.779770,214.913712 
	C115.615387,215.473404 105.019592,215.245483 94.711708,211.771378 
	C76.458450,205.619400 64.701042,192.780319 58.506721,175.091675 
	C49.541687,149.490921 49.569229,123.643250 60.396847,98.583168 
	C72.781410,69.919624 100.441803,56.132431 131.159225,62.301460 
	C156.658829,67.422592 175.582855,87.877365 179.895355,115.438866 
	C181.299210,124.411064 181.916443,133.506348 182.933350,142.914459 
	C149.931519,142.914459 118.012505,142.914459 85.786499,142.914459 
	C85.786499,138.183212 85.786499,133.445541 85.786499,128.192062 
	C111.885178,128.192062 137.939346,128.192062 164.437836,128.192062 
	C162.985687,108.841614 156.880035,92.702988 140.025238,82.202011 
	C121.907196,70.913979 95.713066,75.951393 83.334816,93.439903 
	C67.199028,116.237228 66.511932,141.241425 74.233704,166.915375 
	C78.840248,182.231552 88.482811,194.204941 104.331291,198.378754 
	C129.581635,205.028656 153.141861,196.738037 162.124084,168.558060 
	C163.439148,164.432327 165.075500,162.485855 169.645218,163.061523 
	C173.414627,163.536392 177.291458,163.158508 181.143463,163.158508 
	C176.207703,190.038605 159.075195,212.919724 126.779770,214.913712 
z"/>
<path fill="#FBFBFB" opacity="1.000000" stroke="none" 
	d="
M930.786133,215.018005 
	C917.045410,215.671448 904.051819,214.596207 891.755432,209.003448 
	C872.603821,200.292770 865.079224,184.284195 863.520386,164.199402 
	C869.321533,164.199402 874.947754,164.199402 880.945557,164.199402 
	C881.404236,166.854919 881.755676,169.612991 882.367920,172.311920 
	C885.388428,185.627670 894.200378,193.893204 906.705933,197.673920 
	C922.188599,202.354736 937.642456,201.968277 951.981934,193.243423 
	C963.024170,186.524734 967.264465,174.615128 961.776489,163.669617 
	C959.761047,159.649994 956.015564,155.223694 952.024963,153.710281 
	C940.605530,149.379517 928.614746,146.578232 916.927246,142.924225 
	C906.981140,139.814667 896.733826,137.240723 887.337402,132.882690 
	C861.315674,120.813889 863.632812,85.250061 884.202026,71.948463 
	C902.386780,60.188877 922.078918,58.542301 942.617065,63.718586 
	C955.567383,66.982483 965.545471,74.582863 971.236206,86.656090 
	C974.272583,93.098167 975.562439,100.363457 977.804443,107.800674 
	C970.859192,107.800674 965.231018,107.800674 959.898560,107.800674 
	C958.169800,102.645660 957.126770,97.195557 954.620850,92.531433 
	C948.694458,81.500755 938.052795,77.609718 926.436890,76.281166 
	C916.710632,75.168747 907.156799,76.403641 898.355164,81.143280 
	C890.694031,85.268753 886.563965,91.773476 886.254700,100.450432 
	C885.954773,108.865143 890.554504,114.505798 897.416138,118.590477 
	C908.812317,125.374496 921.860413,126.817062 934.380859,130.009232 
	C943.039856,132.216919 952.133972,133.751343 960.053223,137.602570 
	C974.475952,144.616440 982.416321,156.661362 981.835632,173.274796 
	C981.233521,190.498093 971.794617,202.033676 956.712097,208.545700 
	C948.779358,211.970749 939.779358,212.923920 930.786133,215.018005 
z"/>
<path fill="#FCFCFC" opacity="1.000000" stroke="none" 
	d="
M734.141357,90.362335 
	C738.457336,78.675209 746.606140,71.309982 757.518250,66.725937 
	C772.094727,60.602489 787.278259,59.364384 802.569580,62.571709 
	C826.554382,67.602509 839.745728,85.138824 840.596985,107.752090 
	C834.814758,107.752090 829.037170,107.752090 823.019775,107.752090 
	C822.137817,96.075821 817.579468,86.342659 806.684631,81.072182 
	C791.334412,73.646400 775.638672,73.660652 760.770203,82.145302 
	C746.229614,90.442863 746.782166,109.999306 761.263123,118.538887 
	C771.350342,124.487442 782.697388,126.407097 793.857056,128.984451 
	C802.105591,130.889481 810.569458,132.262466 818.485168,135.123566 
	C833.839172,140.673187 844.098511,151.215363 845.653625,168.175232 
	C847.169861,184.709976 840.491089,198.058685 826.029053,205.684372 
	C800.516663,219.136765 774.300110,219.415863 748.875977,205.028625 
	C735.311218,197.352478 730.191711,184.002274 727.994568,169.308136 
	C727.752808,167.691299 727.666077,166.051315 727.486206,164.204330 
	C733.238037,164.204330 738.866089,164.204330 744.896545,164.204330 
	C745.402283,166.975891 745.799316,169.883438 746.474060,172.725082 
	C749.735352,186.461349 759.119507,194.500076 772.051758,198.104370 
	C786.568237,202.150146 801.059021,201.689529 814.647339,194.058426 
	C826.600830,187.345398 831.439087,175.106369 825.775818,163.707077 
	C823.776550,159.682953 820.024292,155.252365 816.035278,153.736526 
	C804.617554,149.397812 792.647461,146.525833 780.934448,142.946777 
	C771.749146,140.140091 762.179199,138.083054 753.562317,134.029984 
	C735.113281,125.352089 728.862732,110.468178 734.141357,90.362335 
z"/>
<path fill="#FBFBFB" opacity="1.000000" stroke="none" 
	d="
M504.817993,136.999908 
	C504.817871,112.879868 504.817871,89.259819 504.817871,65.399307 
	C510.336884,65.399307 515.419250,65.399307 520.841553,65.399307 
	C520.841553,76.411995 520.841553,87.337593 520.841553,98.263191 
	C532.299500,74.996429 550.276184,62.778492 576.737183,63.332558 
	C576.737183,69.511909 576.737183,75.114784 576.737183,80.210014 
	C569.381531,81.622627 561.896545,82.013885 555.217957,84.538361 
	C534.991760,92.183708 523.855225,107.583893 523.036987,128.953674 
	C522.062256,154.410782 522.682556,179.928955 522.612915,205.420670 
	C522.608032,207.211960 522.612305,209.003281 522.612305,210.982803 
	C516.500793,210.982803 510.903656,210.982803 504.818146,210.982803 
	C504.818146,186.376053 504.818146,161.937988 504.817993,136.999908 
z"/>
<path fill="#FBFBFB" opacity="1.000000" stroke="none" 
	d="
M253.616211,125.604469 
	C267.878174,106.515709 281.983795,87.757240 295.874634,68.841049 
	C297.895630,66.088860 299.950928,65.068565 303.259033,65.218414 
	C308.844727,65.471443 314.450226,65.287842 320.963379,65.287842 
	C313.531555,75.228973 306.603943,84.501381 299.670349,93.769318 
	C271.251434,131.756195 242.801895,169.720261 214.475082,207.775696 
	C212.576859,210.325867 210.738632,211.469452 207.522919,211.307556 
	C201.875137,211.023224 196.202728,211.228134 189.772324,211.228134 
	C211.198288,182.485199 232.294510,154.184601 253.616211,125.604469 
z"/>
<path fill="#010101" opacity="1.000000" stroke="none" 
	d="
M378.537292,188.480576 
	C364.619110,174.827148 360.044769,157.816193 360.439453,139.525940 
	C360.673950,128.660706 361.627869,117.340981 364.963654,107.107460 
	C372.660614,83.494720 392.864929,74.376503 416.624878,76.459747 
	C434.717773,78.046097 446.251709,89.241051 452.615417,105.004997 
	C462.036774,128.343109 461.658875,151.911072 451.039825,175.245743 
	C436.775146,206.591614 396.973907,206.154037 378.537292,188.480576 
z"/>
<path fill="#010101" opacity="1.000000" stroke="none" 
	d="
M674.378540,85.566193 
	C687.518188,96.793732 692.681030,111.235252 693.620789,127.911247 
	C662.164856,127.911247 630.921326,127.911247 599.405090,127.911247 
	C601.712585,111.171700 607.006836,96.276550 620.457581,85.120827 
	C636.983337,71.414780 661.541809,74.893898 674.378540,85.566193 
z"/>
</svg>