<svg version="1.1" id="Layer_1" xmlns="http://www.w3.org/2000/svg" xmlns:xlink="http://www.w3.org/1999/xlink" x="0px" y="0px"
	 width="100%" viewBox="0 0 394 80" enable-background="new 0 0 394 80" xml:space="preserve">
<path fill="#000000" opacity="1.000000" stroke="none" 
	d="
M332.000000,1.000000 
	C352.918365,1.000000 373.836731,1.000000 395.000000,1.000000 
	C395.000000,17.353413 395.000000,33.708050 394.710815,50.818367 
	C390.456390,46.552128 385.165131,45.258846 379.075714,45.981976 
	C374.299103,46.549206 370.432739,49.878490 370.001007,54.011135 
	C369.415466,59.615597 371.152618,62.101292 376.909943,64.026413 
	C380.211975,65.130547 383.488190,66.311943 387.701355,67.781258 
	C386.808197,69.872704 386.198853,73.446503 385.005157,73.653694 
	C382.414825,74.103294 378.123383,73.739006 377.049225,72.077347 
	C374.772797,68.555862 372.304199,68.791122 368.023315,69.434975 
	C369.462280,72.037094 370.585114,74.200447 371.836090,76.286949 
	C372.807831,77.907677 373.939453,79.432533 375.000000,81.000000 
	C369.311951,81.000000 363.623932,81.000000 357.175842,80.686829 
	C358.941986,77.720085 363.320007,75.274857 363.646393,72.373772 
	C364.617096,63.746204 363.994415,54.939369 363.994415,46.258774 
	C361.394318,46.258774 359.328949,46.258774 357.000000,46.258774 
	C357.000000,53.786682 357.158356,61.065075 356.893036,68.327995 
	C356.823303,70.237419 355.853394,73.298630 354.578369,73.735886 
	C351.815643,74.683327 348.431458,74.533295 348.648468,69.891495 
	C346.339050,70.024147 344.455322,70.132347 341.518646,70.301025 
	C343.671051,74.502228 345.335510,77.751114 347.000000,81.000000 
	C343.969391,81.000000 340.938812,81.000000 337.156708,80.672256 
	C336.936646,79.042885 338.084503,77.610168 337.842712,76.472969 
	C337.543854,75.067596 336.322845,73.376099 335.056915,72.823097 
	C334.168732,72.435089 331.728943,73.471642 331.431000,74.358696 
	C330.984802,75.687172 331.758911,77.455055 332.119720,79.011543 
	C332.280487,79.705116 332.698669,80.339020 333.000000,81.000000 
	C323.979095,81.000000 314.958221,81.000000 305.149048,80.606758 
	C304.573853,78.611877 304.968658,77.010643 304.972321,75.408524 
	C305.015350,56.430080 304.994934,37.451500 305.010101,18.472973 
	C305.011261,17.040600 305.156281,15.608341 305.254272,13.811989 
	C314.329132,13.811989 323.070007,13.811989 332.000000,13.811989 
	C332.000000,9.283686 332.000000,5.141843 332.000000,1.000000 
z"/>
<path fill="#000000" opacity="1.000000" stroke="none" 
	d="
M150.000000,1.000000 
	C155.022095,1.000000 160.044189,1.000000 165.606018,1.334670 
	C171.506607,8.024743 176.976135,14.292151 182.207169,20.752651 
	C195.910553,37.676754 209.556122,54.648338 223.105240,71.695976 
	C225.376572,74.553787 227.050186,77.886650 229.000000,81.000000 
	C214.979111,81.000000 200.958206,81.000000 186.171692,80.713211 
	C191.244461,72.775421 197.082870,65.124413 202.824707,57.599949 
	C200.423630,54.562206 198.143250,51.811226 196.019394,48.944298 
	C194.535721,46.941509 193.765152,45.780083 191.578339,48.729912 
	C186.942749,54.982876 181.547714,60.667316 176.772888,66.824356 
	C173.261215,71.352570 170.239853,76.261002 167.000000,81.000000 
	C161.645065,81.000000 156.290146,81.000000 150.467606,80.533661 
	C150.000000,75.793442 150.000000,71.519562 150.000000,66.866287 
	C131.401459,66.866287 113.326706,66.866287 95.270622,66.866287 
	C95.270622,60.057674 95.270622,53.652554 95.270622,46.853554 
	C110.280113,46.853554 125.023453,46.853554 139.723465,46.853554 
	C139.723465,42.375565 139.723465,38.302143 139.723465,33.841461 
	C124.708961,33.841461 109.966721,33.841461 95.283264,33.841461 
	C95.283264,27.031372 95.283264,20.626379 95.283264,13.829955 
	C113.640121,13.829955 131.716965,13.829955 150.000000,13.829955 
	C150.000000,9.289789 150.000000,5.144895 150.000000,1.000000 
z"/>
<path fill="#FFFFFF" opacity="1.000000" stroke="none" 
	d="
M149.531342,1.000000 
	C150.000000,5.144895 150.000000,9.289789 150.000000,13.829955 
	C131.716965,13.829955 113.640121,13.829955 95.283264,13.829955 
	C95.283264,20.626379 95.283264,27.031372 95.283264,33.841461 
	C109.966721,33.841461 124.708961,33.841461 139.723465,33.841461 
	C139.723465,38.302143 139.723465,42.375565 139.723465,46.853554 
	C125.023453,46.853554 110.280113,46.853554 95.270622,46.853554 
	C95.270622,53.652554 95.270622,60.057674 95.270622,66.866287 
	C113.326706,66.866287 131.401459,66.866287 150.000000,66.866287 
	C150.000000,71.519562 150.000000,75.793442 150.000000,80.533661 
	C121.312439,81.000000 92.624878,81.000000 63.468590,80.624397 
	C58.741096,74.405991 54.631660,68.446846 50.190434,62.746204 
	C42.506012,52.882671 34.651909,43.150307 26.795462,33.422295 
	C23.310658,29.107336 19.646696,24.937067 16.064058,20.701118 
	C15.709373,20.880400 15.354687,21.059683 15.000000,21.238966 
	C15.000000,41.159309 15.000000,61.079655 15.000000,81.000000 
	C10.351533,81.000000 5.703065,81.000000 1.027299,81.000000 
	C1.027299,54.455551 1.027299,27.911070 1.027299,1.000000 
	C7.015456,1.000000 13.038352,1.000000 19.233665,1.286709 
	C19.715210,2.334710 19.862932,3.226567 20.357450,3.837888 
	C29.054911,14.589649 37.826927,25.281139 46.515858,36.039745 
	C54.478554,45.899136 62.329277,55.848972 70.295448,65.705528 
	C73.459854,69.620850 76.802231,73.392342 81.000000,78.331017 
	C81.000000,51.486080 81.000000,26.243040 81.000000,1.000000 
	C103.687561,1.000000 126.375122,1.000000 149.531342,1.000000 
z"/>
<path fill="#000000" opacity="1.000000" stroke="none" 
	d="
M248.000000,0.999999 
	C252.689255,1.000000 257.378510,1.000000 262.533875,1.465966 
	C263.000000,5.871690 263.000000,9.811448 263.000000,14.128265 
	C272.260284,14.128265 281.002014,14.128265 290.000000,14.128265 
	C290.000000,36.683895 290.000000,58.841949 290.000000,81.000000 
	C275.979095,81.000000 261.958221,81.000000 247.468582,80.622131 
	C246.686829,79.357521 246.580551,78.308182 246.030045,77.608200 
	C236.397949,65.360764 226.711487,53.156078 216.841354,40.695293 
	C222.395126,33.804554 228.060013,26.909876 233.572998,19.895823 
	C238.469543,13.666028 243.197586,7.303781 248.000000,0.999999 
z"/>
<path fill="#000000" opacity="1.000000" stroke="none" 
	d="
M80.531342,1.000000 
	C81.000000,26.243040 81.000000,51.486080 81.000000,78.331017 
	C76.802231,73.392342 73.459854,69.620850 70.295448,65.705528 
	C62.329277,55.848972 54.478554,45.899136 46.515858,36.039745 
	C37.826927,25.281139 29.054911,14.589649 20.357450,3.837888 
	C19.862932,3.226567 19.715210,2.334710 19.703041,1.286709 
	C40.020893,1.000000 60.041790,1.000000 80.531342,1.000000 
z"/>
<path fill="#FFFFFF" opacity="1.000000" stroke="none" 
	d="
M247.531723,0.999999 
	C243.197586,7.303781 238.469543,13.666028 233.572998,19.895823 
	C228.060013,26.909876 222.395126,33.804554 216.841354,40.695293 
	C226.711487,53.156078 236.397949,65.360764 246.030045,77.608200 
	C246.580551,78.308182 246.686829,79.357521 246.999924,80.622131 
	C241.311966,81.000000 235.623917,81.000000 229.467941,81.000000 
	C227.050186,77.886650 225.376572,74.553787 223.105240,71.695976 
	C209.556122,54.648338 195.910553,37.676754 182.207169,20.752651 
	C176.976135,14.292151 171.506607,8.024743 166.072876,1.334670 
	C172.354401,1.000000 178.708786,1.000000 185.244186,1.288075 
	C191.716522,9.633600 197.963776,17.726149 204.331635,25.722654 
	C205.834305,27.609678 207.201492,29.720360 209.733490,25.984474 
	C213.011810,21.147417 217.350204,17.043301 220.979645,12.425139 
	C223.850647,8.772007 226.340759,4.819546 229.000000,1.000002 
	C235.021149,1.000000 241.042297,1.000000 247.531723,0.999999 
z"/>
<path fill="#FFFFFF" opacity="1.000000" stroke="none" 
	d="
M290.466125,81.000000 
	C290.000000,58.841949 290.000000,36.683895 290.000000,14.128265 
	C281.002014,14.128265 272.260284,14.128265 263.000000,14.128265 
	C263.000000,9.811448 263.000000,5.871690 263.000000,1.465966 
	C285.687561,1.000000 308.375122,1.000000 331.531342,1.000000 
	C332.000000,5.141843 332.000000,9.283686 332.000000,13.811989 
	C323.070007,13.811989 314.329132,13.811989 305.254272,13.811989 
	C305.156281,15.608341 305.011261,17.040600 305.010101,18.472973 
	C304.994934,37.451500 305.015350,56.430080 304.972321,75.408524 
	C304.968658,77.010643 304.573853,78.611877 304.680359,80.606758 
	C300.310760,81.000000 295.621490,81.000000 290.466125,81.000000 
z"/>
<path fill="#000000" opacity="1.000000" stroke="none" 
	d="
M15.468657,81.000000 
	C15.000000,61.079655 15.000000,41.159309 15.000000,21.238966 
	C15.354687,21.059683 15.709373,20.880400 16.064058,20.701118 
	C19.646696,24.937067 23.310658,29.107336 26.795462,33.422295 
	C34.651909,43.150307 42.506012,52.882671 50.190434,62.746204 
	C54.631660,68.446846 58.741096,74.405991 62.999931,80.624397 
	C47.312439,81.000000 31.624876,81.000000 15.468657,81.000000 
z"/>
<path fill="#000000" opacity="1.000000" stroke="none" 
	d="
M228.531342,1.000002 
	C226.340759,4.819546 223.850647,8.772007 220.979645,12.425139 
	C217.350204,17.043301 213.011810,21.147417 209.733490,25.984474 
	C207.201492,29.720360 205.834305,27.609678 204.331635,25.722654 
	C197.963776,17.726149 191.716522,9.633600 185.712585,1.288075 
	C200.020889,1.000000 214.041794,1.000000 228.531342,1.000002 
z"/>
<path fill="#FFFFFF" opacity="1.000000" stroke="none" 
	d="
M167.468262,81.000000 
	C170.239853,76.261002 173.261215,71.352570 176.772888,66.824356 
	C181.547714,60.667316 186.942749,54.982876 191.578339,48.729912 
	C193.765152,45.780083 194.535721,46.941509 196.019394,48.944298 
	C198.143250,51.811226 200.423630,54.562206 202.824707,57.599949 
	C197.082870,65.124413 191.244461,72.775421 185.703033,80.713211 
	C179.978851,81.000000 173.957703,81.000000 167.468262,81.000000 
z"/>
<path fill="#FFFFFF" opacity="1.000000" stroke="none" 
	d="
M375.463196,81.000000 
	C373.939453,79.432533 372.807831,77.907677 371.836090,76.286949 
	C370.585114,74.200447 369.462280,72.037094 368.023315,69.434975 
	C372.304199,68.791122 374.772797,68.555862 377.049225,72.077347 
	C378.123383,73.739006 382.414825,74.103294 385.005157,73.653694 
	C386.198853,73.446503 386.808197,69.872704 387.701355,67.781258 
	C383.488190,66.311943 380.211975,65.130547 376.909943,64.026413 
	C371.152618,62.101292 369.415466,59.615597 370.001007,54.011135 
	C370.432739,49.878490 374.299103,46.549206 379.075714,45.981976 
	C385.165131,45.258846 390.456390,46.552128 394.710815,51.287025 
	C395.000000,52.388889 395.000000,53.777779 394.564606,55.583336 
	C392.108459,55.729660 388.854126,56.119247 388.292084,55.068565 
	C386.402802,51.536896 383.534241,51.805046 380.612823,52.086300 
	C379.373993,52.205570 377.179474,53.374741 377.230560,53.885593 
	C377.392578,55.505703 377.995728,57.897171 379.165131,58.460274 
	C384.302032,60.933823 389.697968,62.869396 395.000000,65.000000 
	C395.000000,68.361290 395.000000,71.722572 394.628448,75.543503 
	C392.171265,77.668762 390.085632,79.334381 388.000000,81.000000 
	C383.975464,81.000000 379.950897,81.000000 375.463196,81.000000 
z"/>
<path fill="#FFFFFF" opacity="1.000000" stroke="none" 
	d="
M347.454102,81.000000 
	C345.335510,77.751114 343.671051,74.502228 341.518646,70.301025 
	C344.455322,70.132347 346.339050,70.024147 348.648468,69.891495 
	C348.431458,74.533295 351.815643,74.683327 354.578369,73.735886 
	C355.853394,73.298630 356.823303,70.237419 356.893036,68.327995 
	C357.158356,61.065075 357.000000,53.786682 357.000000,46.258774 
	C359.328949,46.258774 361.394318,46.258774 363.994415,46.258774 
	C363.994415,54.939369 364.617096,63.746204 363.646393,72.373772 
	C363.320007,75.274857 358.941986,77.720085 356.707886,80.686829 
	C353.969391,81.000000 350.938812,81.000000 347.454102,81.000000 
z"/>
<path fill="#000000" opacity="1.000000" stroke="none" 
	d="
M395.000000,64.550026 
	C389.697968,62.869396 384.302032,60.933823 379.165131,58.460274 
	C377.995728,57.897171 377.392578,55.505703 377.230560,53.885593 
	C377.179474,53.374741 379.373993,52.205570 380.612823,52.086300 
	C383.534241,51.805046 386.402802,51.536896 388.292084,55.068565 
	C388.854126,56.119247 392.108459,55.729660 394.564606,56.000000 
	C395.000000,58.700016 395.000000,61.400028 395.000000,64.550026 
z"/>
<path fill="#FFFFFF" opacity="1.000000" stroke="none" 
	d="
M333.399994,81.000000 
	C332.698669,80.339020 332.280487,79.705116 332.119720,79.011543 
	C331.758911,77.455055 330.984802,75.687172 331.431000,74.358696 
	C331.728943,73.471642 334.168732,72.435089 335.056915,72.823097 
	C336.322845,73.376099 337.543854,75.067596 337.842712,76.472969 
	C338.084503,77.610168 336.936646,79.042885 336.702606,80.672256 
	C335.933319,81.000000 334.866669,81.000000 333.399994,81.000000 
z"/>
<path fill="#000000" opacity="1.000000" stroke="none" 
	d="
M388.497925,81.000000 
	C390.085632,79.334381 392.171265,77.668762 394.628448,76.001572 
	C395.000000,77.594810 395.000000,79.189613 395.000000,81.000000 
	C393.000793,81.000000 390.998291,81.000000 388.497925,81.000000 
z"/>
</svg>